<svg id="visual" viewBox="0 0 3000 540" width="3000" height="540" xmlns="http://www.w3.org/2000/svg" xmlns:xlink="http://www.w3.org/1999/xlink" version="1.1"><rect x="0" y="0" width="3000" height="540" fill="#1e1e2f"></rect><path d="M0 259L27.8 268.7C55.7 278.3 111.3 297.7 166.8 331.5C222.3 365.3 277.7 413.7 333.2 419C388.7 424.3 444.3 386.7 500 374C555.7 361.3 611.3 373.7 666.8 387.7C722.3 401.7 777.7 417.3 833.2 416.3C888.7 415.3 944.3 397.7 1000 400.2C1055.7 402.7 1111.3 425.3 1166.8 426.2C1222.3 427 1277.7 406 1333.2 393.5C1388.7 381 1444.3 377 1500 379.8C1555.7 382.7 1611.3 392.3 1666.8 382.2C1722.3 372 1777.7 342 1833.2 313.3C1888.7 284.7 1944.3 257.3 2000 280C2055.7 302.7 2111.3 375.3 2166.8 390.8C2222.3 406.3 2277.7 364.7 2333.2 328C2388.7 291.3 2444.3 259.7 2500 281.5C2555.7 303.3 2611.3 378.7 2666.8 376.8C2722.3 375 2777.7 296 2833.2 282C2888.7 268 2944.3 319 2972.2 344.5L3000 370L3000 541L2972.2 541C2944.3 541 2888.7 541 2833.2 541C2777.7 541 2722.3 541 2666.8 541C2611.3 541 2555.7 541 2500 541C2444.3 541 2388.7 541 2333.2 541C2277.7 541 2222.3 541 2166.8 541C2111.3 541 2055.7 541 2000 541C1944.3 541 1888.7 541 1833.2 541C1777.7 541 1722.3 541 1666.8 541C1611.3 541 1555.7 541 1500 541C1444.3 541 1388.7 541 1333.2 541C1277.7 541 1222.3 541 1166.8 541C1111.3 541 1055.7 541 1000 541C944.3 541 888.7 541 833.2 541C777.7 541 722.3 541 666.8 541C611.3 541 555.7 541 500 541C444.3 541 388.7 541 333.2 541C277.7 541 222.3 541 166.8 541C111.3 541 55.7 541 27.8 541L0 541Z" fill="#1e1e2f"></path><path d="M0 292L27.8 322.3C55.7 352.7 111.3 413.3 166.8 442.3C222.3 471.3 277.7 468.7 333.2 448.3C388.7 428 444.3 390 500 369.7C555.7 349.3 611.3 346.7 666.8 364.3C722.3 382 777.7 420 833.2 428.7C888.7 437.3 944.3 416.7 1000 413.3C1055.7 410 1111.3 424 1166.8 411.2C1222.3 398.3 1277.7 358.7 1333.2 332C1388.7 305.3 1444.3 291.7 1500 304.5C1555.7 317.3 1611.3 356.7 1666.8 382.8C1722.3 409 1777.7 422 1833.2 434.8C1888.7 447.7 1944.3 460.3 2000 434.2C2055.7 408 2111.3 343 2166.8 320.5C2222.3 298 2277.7 318 2333.2 325.5C2388.7 333 2444.3 328 2500 316.2C2555.7 304.3 2611.3 285.7 2666.8 294.2C2722.3 302.7 2777.7 338.3 2833.2 344.3C2888.7 350.3 2944.3 326.7 2972.2 314.8L3000 303L3000 541L2972.2 541C2944.3 541 2888.7 541 2833.2 541C2777.7 541 2722.3 541 2666.8 541C2611.3 541 2555.7 541 2500 541C2444.3 541 2388.7 541 2333.2 541C2277.7 541 2222.3 541 2166.8 541C2111.3 541 2055.7 541 2000 541C1944.3 541 1888.7 541 1833.2 541C1777.7 541 1722.3 541 1666.8 541C1611.3 541 1555.7 541 1500 541C1444.3 541 1388.7 541 1333.2 541C1277.7 541 1222.3 541 1166.8 541C1111.3 541 1055.7 541 1000 541C944.3 541 888.7 541 833.2 541C777.7 541 722.3 541 666.8 541C611.3 541 555.7 541 500 541C444.3 541 388.7 541 333.2 541C277.7 541 222.3 541 166.8 541C111.3 541 55.7 541 27.8 541L0 541Z" fill="#302f4d"></path><path d="M0 431L27.8 423.2C55.7 415.3 111.3 399.7 166.8 401.2C222.3 402.7 277.7 421.3 333.2 437.2C388.7 453 444.3 466 500 463.2C555.7 460.3 611.3 441.7 666.8 435.8C722.3 430 777.7 437 833.2 421C888.7 405 944.3 366 1000 344.5C1055.7 323 1111.3 319 1166.8 329.8C1222.3 340.7 1277.7 366.3 1333.2 369.8C1388.7 373.3 1444.3 354.7 1500 367C1555.7 379.3 1611.3 422.7 1666.8 421.5C1722.3 420.3 1777.7 374.7 1833.2 367.2C1888.7 359.7 1944.3 390.3 2000 392.8C2055.7 395.3 2111.3 369.7 2166.8 366C2222.3 362.3 2277.7 380.7 2333.2 395.8C2388.7 411 2444.3 423 2500 423.2C2555.7 423.3 2611.3 411.7 2666.8 405C2722.3 398.3 2777.7 396.7 2833.2 395.8C2888.7 395 2944.3 395 2972.2 395L3000 395L3000 541L2972.2 541C2944.3 541 2888.7 541 2833.2 541C2777.7 541 2722.3 541 2666.8 541C2611.3 541 2555.7 541 2500 541C2444.3 541 2388.7 541 2333.2 541C2277.7 541 2222.3 541 2166.8 541C2111.3 541 2055.7 541 2000 541C1944.3 541 1888.7 541 1833.2 541C1777.7 541 1722.3 541 1666.8 541C1611.3 541 1555.7 541 1500 541C1444.3 541 1388.7 541 1333.2 541C1277.7 541 1222.3 541 1166.8 541C1111.3 541 1055.7 541 1000 541C944.3 541 888.7 541 833.2 541C777.7 541 722.3 541 666.8 541C611.3 541 555.7 541 500 541C444.3 541 388.7 541 333.2 541C277.7 541 222.3 541 166.8 541C111.3 541 55.7 541 27.8 541L0 541Z" fill="#43416d"></path><path d="M0 468L27.8 467.8C55.7 467.7 111.3 467.3 166.8 452C222.3 436.7 277.7 406.3 333.2 403.7C388.7 401 444.3 426 500 423.2C555.7 420.3 611.3 389.7 666.8 374.2C722.3 358.7 777.7 358.3 833.2 361.7C888.7 365 944.3 372 1000 386.3C1055.7 400.7 1111.3 422.3 1166.8 435C1222.3 447.7 1277.7 451.3 1333.2 434.2C1388.7 417 1444.3 379 1500 373.7C1555.7 368.3 1611.3 395.7 1666.8 395C1722.3 394.3 1777.7 365.7 1833.2 367.3C1888.7 369 1944.3 401 2000 404.3C2055.7 407.7 2111.3 382.3 2166.8 373.7C2222.3 365 2277.7 373 2333.2 375.2C2388.7 377.3 2444.3 373.7 2500 382.3C2555.7 391 2611.3 412 2666.8 408.5C2722.3 405 2777.7 377 2833.2 374.7C2888.7 372.3 2944.3 395.7 2972.2 407.3L3000 419L3000 541L2972.2 541C2944.3 541 2888.7 541 2833.2 541C2777.7 541 2722.3 541 2666.8 541C2611.3 541 2555.7 541 2500 541C2444.3 541 2388.7 541 2333.2 541C2277.7 541 2222.3 541 2166.8 541C2111.3 541 2055.7 541 2000 541C1944.3 541 1888.7 541 1833.2 541C1777.7 541 1722.3 541 1666.8 541C1611.3 541 1555.7 541 1500 541C1444.3 541 1388.7 541 1333.2 541C1277.7 541 1222.3 541 1166.8 541C1111.3 541 1055.7 541 1000 541C944.3 541 888.7 541 833.2 541C777.7 541 722.3 541 666.8 541C611.3 541 555.7 541 500 541C444.3 541 388.7 541 333.2 541C277.7 541 222.3 541 166.8 541C111.3 541 55.7 541 27.8 541L0 541Z" fill="#59538f"></path><path d="M0 448L27.8 452.7C55.7 457.3 111.3 466.7 166.8 472.3C222.3 478 277.7 480 333.2 464.7C388.7 449.3 444.3 416.7 500 410.8C555.7 405 611.3 426 666.8 427.8C722.3 429.7 777.7 412.3 833.2 403.8C888.7 395.3 944.3 395.7 1000 412.7C1055.7 429.7 1111.3 463.3 1166.8 477C1222.3 490.7 1277.7 484.3 1333.2 485.2C1388.7 486 1444.3 494 1500 487.3C1555.7 480.7 1611.3 459.3 1666.8 445.8C1722.3 432.3 1777.7 426.7 1833.2 417.3C1888.7 408 1944.3 395 2000 388.5C2055.7 382 2111.3 382 2166.8 386.5C2222.3 391 2277.7 400 2333.2 408C2388.7 416 2444.3 423 2500 434.5C2555.7 446 2611.3 462 2666.8 457.3C2722.3 452.7 2777.7 427.3 2833.2 421.7C2888.7 416 2944.3 430 2972.2 437L3000 444L3000 541L2972.2 541C2944.3 541 2888.7 541 2833.2 541C2777.7 541 2722.3 541 2666.8 541C2611.3 541 2555.7 541 2500 541C2444.3 541 2388.7 541 2333.2 541C2277.7 541 2222.3 541 2166.8 541C2111.3 541 2055.7 541 2000 541C1944.3 541 1888.7 541 1833.2 541C1777.7 541 1722.3 541 1666.8 541C1611.3 541 1555.7 541 1500 541C1444.3 541 1388.7 541 1333.2 541C1277.7 541 1222.3 541 1166.8 541C1111.3 541 1055.7 541 1000 541C944.3 541 888.7 541 833.2 541C777.7 541 722.3 541 666.8 541C611.3 541 555.7 541 500 541C444.3 541 388.7 541 333.2 541C277.7 541 222.3 541 166.8 541C111.3 541 55.7 541 27.8 541L0 541Z" fill="#7165b2"></path><path d="M0 508L27.8 503C55.7 498 111.3 488 166.8 479.3C222.3 470.7 277.7 463.3 333.2 460.7C388.7 458 444.3 460 500 460.5C555.7 461 611.3 460 666.8 459.5C722.3 459 777.7 459 833.2 459.8C888.7 460.7 944.3 462.3 1000 460.7C1055.7 459 1111.3 454 1166.8 462.7C1222.3 471.3 1277.7 493.7 1333.2 496.8C1388.7 500 1444.3 484 1500 473.8C1555.7 463.7 1611.3 459.3 1666.8 468.2C1722.3 477 1777.7 499 1833.2 501C1888.7 503 1944.3 485 2000 471C2055.7 457 2111.3 447 2166.8 446.8C2222.3 446.7 2277.7 456.3 2333.2 466C2388.7 475.7 2444.3 485.3 2500 487.8C2555.7 490.3 2611.3 485.7 2666.8 476.3C2722.3 467 2777.7 453 2833.2 448.7C2888.7 444.3 2944.3 449.7 2972.2 452.3L3000 455L3000 541L2972.2 541C2944.3 541 2888.7 541 2833.2 541C2777.7 541 2722.3 541 2666.8 541C2611.3 541 2555.7 541 2500 541C2444.3 541 2388.7 541 2333.2 541C2277.7 541 2222.3 541 2166.8 541C2111.3 541 2055.7 541 2000 541C1944.3 541 1888.7 541 1833.2 541C1777.7 541 1722.3 541 1666.8 541C1611.3 541 1555.7 541 1500 541C1444.3 541 1388.7 541 1333.2 541C1277.7 541 1222.3 541 1166.8 541C1111.3 541 1055.7 541 1000 541C944.3 541 888.7 541 833.2 541C777.7 541 722.3 541 666.8 541C611.3 541 555.7 541 500 541C444.3 541 388.7 541 333.2 541C277.7 541 222.3 541 166.8 541C111.3 541 55.7 541 27.8 541L0 541Z" fill="#8b78d6"></path><path d="M0 503L27.8 500C55.7 497 111.3 491 166.8 495.3C222.3 499.7 277.7 514.3 333.2 522.7C388.7 531 444.3 533 500 533.2C555.7 533.3 611.3 531.7 666.8 526.3C722.3 521 777.7 512 833.2 502.7C888.7 493.3 944.3 483.7 1000 484.5C1055.7 485.3 1111.3 496.7 1166.8 504.8C1222.3 513 1277.7 518 1333.2 517.7C1388.7 517.3 1444.3 511.7 1500 513.3C1555.7 515 1611.3 524 1666.8 516.3C1722.3 508.7 1777.7 484.3 1833.2 475.3C1888.7 466.3 1944.3 472.7 2000 473.5C2055.7 474.3 2111.3 469.7 2166.8 476.5C2222.3 483.3 2277.7 501.7 2333.2 506.8C2388.7 512 2444.3 504 2500 503.7C2555.7 503.3 2611.3 510.7 2666.8 509.3C2722.3 508 2777.7 498 2833.2 499.8C2888.7 501.7 2944.3 515.3 2972.2 522.2L3000 529L3000 541L2972.2 541C2944.3 541 2888.7 541 2833.2 541C2777.7 541 2722.3 541 2666.8 541C2611.3 541 2555.7 541 2500 541C2444.3 541 2388.7 541 2333.2 541C2277.7 541 2222.3 541 2166.8 541C2111.3 541 2055.7 541 2000 541C1944.3 541 1888.7 541 1833.2 541C1777.7 541 1722.3 541 1666.8 541C1611.3 541 1555.7 541 1500 541C1444.3 541 1388.7 541 1333.2 541C1277.7 541 1222.3 541 1166.8 541C1111.3 541 1055.7 541 1000 541C944.3 541 888.7 541 833.2 541C777.7 541 722.3 541 666.8 541C611.3 541 555.7 541 500 541C444.3 541 388.7 541 333.2 541C277.7 541 222.3 541 166.8 541C111.3 541 55.7 541 27.8 541L0 541Z" fill="#a78bfa"></path></svg>